<svg width="36" height="36" viewBox="0 0 36 36" fill="none" xmlns="http://www.w3.org/2000/svg">
<g clip-path="url(#clip0_804_53092)">
<path d="M27.6502 29.4036C27.3481 29.5112 27.0278 29.558 26.7076 29.5415C26.3874 29.525 26.0736 29.4454 25.7841 29.3074C25.4947 29.1694 25.2354 28.9756 25.021 28.7372C24.8066 28.4987 24.6414 28.2204 24.5348 27.918C24.4273 27.6164 24.3805 27.2965 24.3971 26.9767C24.4136 26.657 24.4932 26.3437 24.6313 26.0548C24.7694 25.7659 24.9632 25.5072 25.2016 25.2935C25.44 25.0798 25.7183 24.9153 26.0205 24.8095C26.3221 24.702 26.642 24.6552 26.9617 24.6718C27.2814 24.6883 27.5948 24.7679 27.8836 24.906C28.1725 25.0441 28.4313 25.2379 28.645 25.4763C28.8587 25.7147 29.0232 25.993 29.129 26.2952C29.2364 26.5964 29.2834 26.9158 29.2672 27.2351C29.251 27.5545 29.172 27.8675 29.0346 28.1563C28.8972 28.445 28.7042 28.7039 28.4667 28.9179C28.2291 29.1319 27.9517 29.297 27.6502 29.4036ZM16.2285 12.4629C16.2285 14.3944 14.6604 15.9687 12.7226 15.9687C10.7849 15.9687 9.2168 14.3944 9.2168 12.4629C9.2168 10.5251 10.7849 8.95703 12.7226 8.95703C14.6604 8.95703 16.2285 10.5251 16.2285 12.4629Z" stroke="#7D63EC" stroke-width="2" stroke-miterlimit="10" stroke-linecap="round" stroke-linejoin="round"/>
<path d="M21.317 19.5213L20.1394 16.6323C20.4751 16.0507 20.7347 15.4138 20.9196 14.7423L23.7892 13.5377V11.3728L20.9196 10.1675C20.7381 9.50785 20.4761 8.87307 20.1394 8.2775L21.317 5.40166L19.7835 3.86751L16.8938 5.04581C16.3116 4.71004 15.6816 4.45043 15.0177 4.26489L13.8054 1.39666L11.6482 1.38281L10.4297 4.26558C9.77205 4.45043 9.13513 4.71766 8.55359 5.0465L5.6639 3.8682L4.12974 5.40235L5.30736 8.2782C4.97228 8.87358 4.71197 9.49666 4.52713 10.1682L1.6582 11.3728V13.537L4.52713 14.7423C4.71197 15.4138 4.97228 16.0507 5.30736 16.6323L4.13043 19.522L5.6639 21.0416L8.53974 19.8647C9.12128 20.1997 9.7582 20.4739 10.4297 20.6518L11.6413 23.5277H13.7985L15.0031 20.6518C15.6747 20.4739 16.3185 20.1997 16.9 19.864L19.7835 21.0416L21.317 19.5213ZM12.724 15.9684C11.7944 15.9678 10.903 15.5983 10.2456 14.9409C9.58829 14.2836 9.21875 13.3921 9.2182 12.4625C9.2182 10.5247 10.7863 8.95666 12.724 8.95666C14.6618 8.95666 16.2299 10.5247 16.2299 12.4625C16.2293 13.3921 15.8598 14.2836 15.2024 14.9409C14.5451 15.5983 13.6537 15.9678 12.724 15.9684ZM32.7387 26.7047L34.3407 25.246L33.8408 23.8357L31.6774 23.7056C31.402 23.3142 31.08 22.9578 30.7185 22.6443L30.821 20.487L29.4724 19.8294L27.8496 21.2749C27.3823 21.19 26.9058 21.1667 26.4324 21.2057L24.9737 19.6037L23.5559 20.1035L23.4327 22.2677C23.0416 22.5381 22.6852 22.8555 22.3714 23.2127L20.2079 23.1095L19.564 24.4727L21.002 26.0954C20.9171 26.5604 20.8941 27.0346 20.9334 27.5057L19.3314 28.9644L19.8244 30.3815L21.9947 30.5117C22.2689 30.8952 22.5901 31.2517 22.9397 31.5598L22.8373 33.7302L24.1997 34.381L25.8156 32.9361C26.2833 33.0196 26.7595 33.045 27.2334 33.0116L28.6914 34.6136L30.1093 34.1137L30.2325 31.9503C30.6244 31.6808 30.9789 31.3608 31.2869 30.9984L33.4573 31.1008L34.1011 29.7453L32.6632 28.1287C32.747 27.659 32.7724 27.1806 32.7387 26.7047ZM27.6509 29.4026C27.3488 29.5101 27.0285 29.5569 26.7083 29.5404C26.3881 29.5239 26.0743 29.4443 25.7848 29.3063C25.4954 29.1683 25.2361 28.9745 25.0217 28.7361C24.8073 28.4977 24.6421 28.2193 24.5355 27.9169C24.428 27.6153 24.3812 27.2954 24.3978 26.9757C24.4143 26.6559 24.4939 26.3426 24.632 26.0537C24.7701 25.7649 24.9639 25.5061 25.2023 25.2924C25.4407 25.0787 25.719 24.9142 26.0212 24.8084C26.3228 24.7009 26.6427 24.6541 26.9624 24.6707C27.2822 24.6872 27.5955 24.7668 27.8844 24.9049C28.1732 25.043 28.432 25.2368 28.6457 25.4752C28.8594 25.7136 29.0239 25.9919 29.1297 26.2941C29.2371 26.5953 29.2841 26.9147 29.2679 27.2341C29.2517 27.5534 29.1727 27.8665 29.0353 28.1552C28.898 28.444 28.705 28.7028 28.4674 28.9168C28.2298 29.1309 27.9524 29.296 27.6509 29.4026Z" stroke="#7D63EC" stroke-width="0.5" stroke-miterlimit="10" stroke-linecap="round" stroke-linejoin="round"/>
<path d="M27.6509 29.4031C27.3488 29.5106 27.0285 29.5575 26.7083 29.5409C26.3881 29.5244 26.0743 29.4449 25.7849 29.3069C25.4955 29.1688 25.2361 28.9751 25.0217 28.7366C24.8074 28.4982 24.6421 28.2198 24.5355 27.9174C24.428 27.6158 24.3812 27.296 24.3978 26.9762C24.4143 26.6565 24.4939 26.3431 24.632 26.0543C24.7701 25.7654 24.9639 25.5067 25.2023 25.2929C25.4407 25.0792 25.719 24.9147 26.0212 24.809C26.3228 24.7015 26.6427 24.6547 26.9624 24.6712C27.2822 24.6878 27.5955 24.7674 27.8844 24.9055C28.1733 25.0435 28.432 25.2373 28.6457 25.4757C28.8594 25.7142 29.0239 25.9925 29.1297 26.2947C29.2371 26.5958 29.2841 26.9152 29.2679 27.2346C29.2518 27.554 29.1727 27.867 29.0353 28.1558C28.898 28.4445 28.705 28.7033 28.4674 28.9174C28.2298 29.1314 27.9524 29.2965 27.6509 29.4031Z" stroke="#7D63EC" stroke-width="0.5" stroke-miterlimit="10" stroke-linecap="round" stroke-linejoin="round"/>
<path d="M27.8169 29.875C27.4531 30.0044 27.0674 30.0607 26.6818 30.0408C26.2959 30.0209 25.9177 29.925 25.5689 29.7587C25.2201 29.5924 24.9076 29.3588 24.6492 29.0715C24.391 28.7844 24.192 28.4491 24.0635 28.085C23.9341 27.7216 23.8778 27.3362 23.8977 26.9509C23.9177 26.5653 24.0137 26.1875 24.1802 25.8392C24.3467 25.4908 24.5804 25.1789 24.8678 24.9212C25.155 24.6638 25.4901 24.4656 25.854 24.338C26.2172 24.2088 26.6025 24.1525 26.9876 24.1724C27.3731 24.1924 27.7509 24.2884 28.0993 24.4549C28.4476 24.6213 28.7596 24.855 29.0173 25.1425C29.2746 25.4296 29.4728 25.7647 29.6003 26.1285M27.8169 29.875C28.1804 29.7465 28.5149 29.5474 28.8014 29.2894C29.0878 29.0313 29.3205 28.7192 29.4861 28.3711C29.6518 28.0229 29.7471 27.6455 29.7666 27.2604C29.7861 26.8759 29.7296 26.4912 29.6003 26.1285M27.8169 29.875L27.6502 29.4036M27.8169 29.875L27.6502 29.4036M27.8169 29.875C27.8172 29.8749 27.8175 29.8748 27.8178 29.8747L27.6502 29.4036M27.8169 29.875L27.6502 29.4036M29.6003 26.1285C29.6002 26.128 29.6 26.1276 29.5999 26.1272L29.129 26.2952L29.6009 26.13C29.6007 26.1295 29.6005 26.129 29.6003 26.1285ZM12.7226 16.4687C14.9371 16.4687 16.7285 14.67 16.7285 12.4629C16.7285 10.249 14.9366 8.45703 12.7226 8.45703C10.5087 8.45703 8.7168 10.249 8.7168 12.4629C8.7168 14.67 10.5082 16.4687 12.7226 16.4687Z" stroke="#7D63EC" stroke-miterlimit="10" stroke-linecap="round" stroke-linejoin="round"/>
<path d="M21.669 19.8763C21.8124 19.7341 21.8562 19.5196 21.78 19.3325L20.6929 16.6656C20.9557 16.1752 21.1686 15.6533 21.3334 15.1108L23.9827 13.9987C24.1684 13.9207 24.2892 13.739 24.2892 13.5377V11.3728C24.2892 11.1715 24.1684 10.9898 23.9828 10.9118L21.3332 9.79893C21.1694 9.26228 20.9548 8.74247 20.6923 8.24655L21.7797 5.59113C21.856 5.4047 21.813 5.19067 21.6706 5.04819L20.1371 3.51403C19.9949 3.37168 19.7811 3.32852 19.5947 3.40452L16.9272 4.49224C16.4387 4.23011 15.9225 4.01724 15.386 3.85197L14.266 1.20201C14.1882 1.01801 14.0084 0.897951 13.8086 0.896669L11.6514 0.882823C11.4493 0.881526 11.2663 1.00201 11.1877 1.18815L10.0612 3.8533C9.52677 4.01955 9.00835 4.23634 8.52222 4.49374L5.85268 3.40521C5.66635 3.32923 5.45263 3.37235 5.31034 3.51464L3.77619 5.0488C3.63371 5.19128 3.59068 5.40536 3.66703 5.59182L4.75452 8.24758C4.49334 8.74171 4.27935 9.2559 4.11349 9.79959L1.46463 10.9118C1.27898 10.9898 1.1582 11.1715 1.1582 11.3728V13.537C1.1582 13.7383 1.27894 13.92 1.46454 13.9979L4.11331 15.1108C4.27825 15.6535 4.49161 16.1753 4.75394 16.6655L3.66737 19.3334C3.59118 19.5204 3.63502 19.7349 3.77849 19.8771L5.31195 21.3967C5.45446 21.538 5.66759 21.5803 5.85327 21.5043L8.50644 20.4185C8.99282 20.6809 9.51469 20.9033 10.0623 21.0675L11.1805 23.7218C11.2586 23.9071 11.4401 24.0277 11.6413 24.0277H13.7985C14 24.0277 14.1818 23.9067 14.2597 23.7208L15.3711 21.0674C15.9191 20.9034 16.4453 20.6811 16.9336 20.4178L19.5945 21.5045C19.7801 21.5803 19.9931 21.5378 20.1355 21.3967L21.669 19.8763ZM34.6773 25.6157C34.8261 25.4802 34.8792 25.2686 34.8119 25.0789L34.3121 23.6687C34.245 23.4795 34.0713 23.3487 33.8708 23.3366L31.9418 23.2206C31.7265 22.9383 31.4882 22.6744 31.2292 22.4316L31.3204 20.5108C31.3299 20.3112 31.2197 20.1252 31.0401 20.0376L29.6915 19.3799C29.5092 19.291 29.2912 19.3211 29.1398 19.456L27.6942 20.7437C27.3454 20.6953 26.9929 20.678 26.641 20.6921L25.3434 19.267C25.2081 19.1184 24.997 19.0653 24.8075 19.1321L23.3897 19.632C23.1995 19.699 23.0682 19.8737 23.0567 20.0751L22.947 22.0016C22.6659 22.2128 22.4029 22.4471 22.1607 22.702L20.2317 22.6101C20.0299 22.6004 19.8421 22.7133 19.7558 22.896L19.1119 24.2591C19.0265 24.44 19.0571 24.6545 19.1898 24.8043L20.4708 26.2499C20.4225 26.5968 20.4054 26.9473 20.4196 27.2973L18.9948 28.5946C18.8468 28.7294 18.7934 28.9395 18.8592 29.1286L19.3521 30.5458C19.4184 30.7364 19.5929 30.8685 19.7944 30.8806L21.7323 30.9968C21.9444 31.2721 22.1787 31.5322 22.4292 31.7703L22.3378 33.7066C22.3283 33.9076 22.4402 34.0947 22.6218 34.1814L23.9842 34.8321C24.1662 34.9191 24.3827 34.8881 24.533 34.7537L25.972 33.467C26.32 33.515 26.6715 33.5337 27.0226 33.5228L28.3217 34.9501C28.4569 35.0988 28.6681 35.152 28.8577 35.0851L30.2755 34.5853C30.4657 34.5182 30.597 34.3435 30.6085 34.1422L30.7181 32.2168C31.0001 32.0048 31.2625 31.768 31.5021 31.5091L33.4337 31.6003C33.6351 31.6098 33.8224 31.4974 33.9089 31.3153L34.5528 29.9598C34.6389 29.7784 34.6082 29.563 34.4747 29.413L33.194 27.9731C33.2424 27.6227 33.2611 27.2688 33.25 26.9153L34.6773 25.6157ZM27.4842 28.9312L27.4832 28.9315C27.2432 29.017 26.9886 29.0542 26.734 29.0411C26.4795 29.0279 26.2301 28.9647 26.0001 28.855C25.77 28.7453 25.5639 28.5913 25.3935 28.4018C25.2231 28.2123 25.0918 27.991 25.0071 27.7507L25.0065 27.749C24.9211 27.5095 24.8839 27.2555 24.8971 27.0015C24.9102 26.7476 24.9735 26.4988 25.0831 26.2693C25.1928 26.0399 25.3467 25.8344 25.536 25.6647C25.7254 25.495 25.9464 25.3644 26.1864 25.2804L26.1891 25.2794C26.4286 25.194 26.6826 25.1569 26.9366 25.17C27.1905 25.1832 27.4393 25.2464 27.6687 25.356C27.8982 25.4657 28.1036 25.6196 28.2734 25.809L28.6457 25.4752L28.2734 25.809C28.4431 25.9983 28.5737 26.2193 28.6577 26.4593L28.6587 26.4622C28.7441 26.7014 28.7814 26.9551 28.7686 27.2088C28.7557 27.4624 28.6929 27.7111 28.5838 27.9404C28.4747 28.1698 28.3214 28.3754 28.1327 28.5454C27.944 28.7154 27.7236 28.8465 27.4842 28.9312ZM12.724 15.4684C11.927 15.4678 11.1628 15.1509 10.5992 14.5874C10.0355 14.0237 9.71867 13.2593 9.7182 12.4622C9.71836 10.8007 11.0625 9.45666 12.724 9.45666C14.3856 9.45666 15.7297 10.8007 15.7299 12.4622C15.7294 13.2593 15.4126 14.0237 14.8489 14.5874C14.2853 15.1509 13.5211 15.4678 12.724 15.4684Z" stroke="#7D63EC" stroke-miterlimit="10" stroke-linecap="round" stroke-linejoin="round"/>
<path d="M27.6509 29.4031C27.3488 29.5106 27.0285 29.5575 26.7083 29.5409C26.3881 29.5244 26.0743 29.4449 25.7849 29.3069C25.4955 29.1688 25.2361 28.9751 25.0217 28.7366C24.8074 28.4982 24.6421 28.2198 24.5355 27.9174C24.428 27.6158 24.3812 27.296 24.3978 26.9762C24.4143 26.6565 24.4939 26.3431 24.632 26.0543C24.7701 25.7654 24.9639 25.5067 25.2023 25.2929C25.4407 25.0792 25.719 24.9147 26.0212 24.809C26.3228 24.7015 26.6427 24.6547 26.9624 24.6712C27.2822 24.6878 27.5955 24.7674 27.8844 24.9055C28.1733 25.0435 28.432 25.2373 28.6457 25.4757C28.8594 25.7142 29.0239 25.9925 29.1297 26.2947C29.2371 26.5958 29.2841 26.9152 29.2679 27.2346C29.2518 27.554 29.1727 27.867 29.0353 28.1558C28.898 28.4445 28.705 28.7033 28.4674 28.9174C28.2298 29.1314 27.9524 29.2965 27.6509 29.4031Z" stroke="#7D63EC" stroke-miterlimit="10" stroke-linecap="round" stroke-linejoin="round"/>
</g>
<defs>
<clipPath id="clip0_804_53092">
<rect width="36" height="36" fill="white"/>
</clipPath>
</defs>
</svg>
