<svg width="27" height="36" viewBox="0 0 27 36" fill="none" xmlns="http://www.w3.org/2000/svg">
<path d="M0.6 0C0.44087 0 0.288258 0.0632141 0.175736 0.175736C0.0632142 0.288258 0 0.44087 0 0.6V3C0 3.15913 0.0632142 3.31174 0.175736 3.42426C0.288258 3.53679 0.44087 3.6 0.6 3.6H1.2V32.4H0.6C0.44087 32.4 0.288258 32.4632 0.175736 32.5757C0.0632142 32.6883 0 32.8409 0 33V35.4C0 35.5591 0.0632142 35.7117 0.175736 35.8243C0.288258 35.9368 0.44087 36 0.6 36H25.8C25.9591 36 26.1117 35.9368 26.2243 35.8243C26.3368 35.7117 26.4 35.5591 26.4 35.4V33C26.4 32.8409 26.3368 32.6883 26.2243 32.5757C26.1117 32.4632 25.9591 32.4 25.8 32.4H25.2V3.6H25.8C25.9591 3.6 26.1117 3.53679 26.2243 3.42426C26.3368 3.31174 26.4 3.15913 26.4 3V0.6C26.4 0.44087 26.3368 0.288258 26.2243 0.175736C26.1117 0.0632141 25.9591 0 25.8 0H0.6ZM1.2 1.2H25.2V2.4H1.2V1.2ZM2.4 3.6H4.8024V9.8628C4.8024 13.8432 7.6272 17.0856 11.376 17.9256V19.3356C7.6272 20.1756 4.8 23.4204 4.8 27.4008V32.4H2.4V3.6ZM6.0024 3.6H20.4216V9.8628C20.4216 13.4448 17.8056 16.374 14.3532 16.9152C14.2136 16.9372 14.0863 17.0078 13.9937 17.1145C13.901 17.2212 13.849 17.3571 13.8468 17.4984C13.8468 17.5016 13.8468 17.5048 13.8468 17.508V19.7556C13.847 19.8967 13.8968 20.0333 13.9877 20.1413C14.0786 20.2492 14.2046 20.3217 14.3436 20.346C14.3468 20.3468 14.35 20.3476 14.3532 20.3484C17.8044 20.8896 20.4216 23.8176 20.4216 27.4008V32.4H6V27.4008C6 27.1764 6.0108 26.9532 6.03 26.7348C6.33 23.4588 8.832 20.8548 12.0684 20.3484C12.2098 20.3264 12.3387 20.2545 12.4317 20.1458C12.5248 20.0371 12.576 19.8987 12.576 19.7556V17.508C12.576 17.3649 12.5248 17.2265 12.4317 17.1178C12.3387 17.0091 12.2098 16.9372 12.0684 16.9152C8.616 16.374 6.0024 13.4448 6.0024 9.8628V3.6ZM21.6216 3.6H24V32.4H21.6216V27.4008C21.6216 27.1524 21.6096 26.9052 21.588 26.6628C21.264 23.0232 18.5616 20.1228 15.048 19.3356V17.9256C18.7956 17.0856 21.6216 13.8432 21.6216 9.8616V3.6ZM7.758 4.8V4.8024C7.68456 4.80224 7.61182 4.81655 7.54391 4.84451C7.47601 4.87246 7.41427 4.91352 7.36223 4.96534C7.3102 5.01715 7.26887 5.07871 7.24062 5.14649C7.21238 5.21428 7.19776 5.28696 7.1976 5.3604V10.2936C7.1976 10.3686 7.2127 10.4429 7.242 10.512C7.3908 13.3884 9.354 15.7848 12.0048 16.3476C12.4152 16.4352 12.5208 16.5792 12.5832 16.6848C12.6456 16.7928 12.6432 16.83 12.6432 16.83C12.6545 16.9701 12.7181 17.1008 12.8214 17.1961C12.9247 17.2914 13.0601 17.3444 13.2006 17.3444C13.3411 17.3444 13.4765 17.2914 13.5798 17.1961C13.6831 17.1008 13.7467 16.9701 13.758 16.83C13.758 16.83 13.7532 16.794 13.8168 16.6872C13.8792 16.5804 13.9908 16.4328 14.4096 16.3428C17.0544 15.7752 19.0056 13.3836 19.1556 10.5108C19.1859 10.4415 19.2018 10.3668 19.2024 10.2912V5.358C19.2022 5.28456 19.1876 5.21188 19.1594 5.14409C19.1311 5.07631 19.0898 5.01475 19.0378 4.96294C18.9857 4.91112 18.924 4.87006 18.8561 4.84211C18.7882 4.81415 18.7154 4.79984 18.642 4.8H7.758ZM8.316 5.9184H18.084V10.2168C18.0802 10.239 18.0778 10.2615 18.0768 10.284C18.03 12.7596 16.3572 14.784 14.1744 15.252C13.6776 15.36 13.4424 15.636 13.2 15.8904C12.96 15.6384 12.7284 15.36 12.2364 15.2544C10.05 14.7912 8.37 12.7632 8.3232 10.284C8.32236 10.2599 8.31995 10.2358 8.316 10.212V5.9184ZM13.2144 27.0492C13.2016 27.0496 13.1888 27.0504 13.176 27.0516C13.0558 27.057 12.9406 27.101 12.8474 27.1771C12.7543 27.2532 12.6881 27.3573 12.6588 27.474H12.6564C12.6084 27.5208 12.4128 27.6684 11.8764 27.78C10.3188 28.1091 8.93403 28.9932 7.98 30.2676C7.91766 30.3505 7.87962 30.4492 7.87014 30.5525C7.86065 30.6558 7.8801 30.7597 7.9263 30.8526C7.9725 30.9455 8.04363 31.0237 8.13173 31.0785C8.21984 31.1333 8.32145 31.1625 8.4252 31.1628H17.9748C18.0784 31.1622 18.1799 31.1329 18.2678 31.078C18.3558 31.0232 18.4267 30.9449 18.4728 30.8521C18.5188 30.7592 18.5382 30.6554 18.5286 30.5522C18.5191 30.449 18.4811 30.3505 18.4188 30.2676C17.4648 28.9932 16.08 28.1091 14.5224 27.78C13.986 27.6684 13.7904 27.5196 13.7436 27.474H13.7412C13.7118 27.3552 13.6443 27.2492 13.5489 27.1725C13.4535 27.0958 13.3368 27.0525 13.2144 27.0492ZM13.2 28.3752C13.458 28.5708 13.7436 28.7592 14.2944 28.8732C15.162 29.0532 15.9048 29.4972 16.5684 30.042H9.8316C10.494 29.4984 11.2356 29.0532 12.1032 28.8732C12.6552 28.758 12.9432 28.5708 13.2 28.3752ZM1.2 33.6H25.2V34.8H1.2V33.6Z" fill="#7D63EC"/>
</svg>
