<svg width="44" height="44" viewBox="0 0 44 44" fill="none" xmlns="http://www.w3.org/2000/svg">
<path d="M39.8327 16.0013H4.16602V12.8346C4.16602 11.9948 4.49965 11.1893 5.09351 10.5955C5.68738 10.0016 6.49283 9.66797 7.33268 9.66797H36.666C37.5059 9.66797 38.3113 10.0016 38.9052 10.5955C39.4991 11.1893 39.8327 11.9948 39.8327 12.8346V16.0013ZM39.8327 22.5013V31.168C39.8327 32.0078 39.4991 32.8133 38.9052 33.4071C38.3113 34.001 37.5059 34.3346 36.666 34.3346H7.33268C6.49283 34.3346 5.68738 34.001 5.09351 33.4071C4.49965 32.8133 4.16602 32.0078 4.16602 31.168V22.5013H39.8327ZM10.9994 25.168C10.3805 25.168 9.78702 25.4138 9.34943 25.8514C8.91185 26.289 8.66602 26.8825 8.66602 27.5013C8.66602 28.1201 8.91185 28.7136 9.34943 29.1512C9.78702 29.5888 10.3805 29.8346 10.9994 29.8346H12.8327C13.4515 29.8346 14.045 29.5888 14.4826 29.1512C14.9202 28.7136 15.166 28.1201 15.166 27.5013C15.166 26.8825 14.9202 26.289 14.4826 25.8514C14.045 25.4138 13.4515 25.168 12.8327 25.168H10.9994ZM20.166 25.168C19.5472 25.168 18.9537 25.4138 18.5161 25.8514C18.0785 26.289 17.8327 26.8825 17.8327 27.5013C17.8327 28.1201 18.0785 28.7136 18.5161 29.1512C18.9537 29.5888 19.5472 29.8346 20.166 29.8346H29.3327C29.9515 29.8346 30.545 29.5888 30.9826 29.1512C31.4202 28.7136 31.666 28.1201 31.666 27.5013C31.666 26.8825 31.4202 26.289 30.9826 25.8514C30.545 25.4138 29.9515 25.168 29.3327 25.168H20.166Z" fill="white" stroke="#7D63EC"/>
</svg>
